<svg width="21" height="18" viewBox="0 0 21 18" fill="none" xmlns="http://www.w3.org/2000/svg">
<path d="M10.8571 17.9392L10.8962 18H14.8127L14.8518 17.9392L16.851 14.9589L18.8501 11.9785L20.6928 9.23405C20.7604 9.13399 20.6892 9.00177 20.5683 9.00177H16.9292C16.8794 9.00177 16.8332 9.02678 16.8047 9.06967L14.8518 11.9821L12.8527 14.9625L10.8571 17.9392Z" fill="#49A4FD"/>
<path d="M2.86755 17.9392L2.90668 18H6.82319L6.86231 17.9392L8.86147 14.9589L10.8606 11.9786L14.8554 6.01787L16.8546 3.03752L18.7363 0.232281C18.7968 0.135795 18.7257 0 18.6047 0H14.891L14.8518 0.0607504L12.8527 3.03752L10.8535 6.01787L6.86231 11.9786L4.86316 14.9589L2.86755 17.9392Z" fill="#49A4FD"/>
<path d="M1.1488 8.99821H4.78428C4.83408 8.99821 4.88032 8.9732 4.90878 8.93032L6.8617 6.01787L8.86086 3.03752L10.86 0.0571769L10.8173 0H6.90083L6.8617 0.0607505L4.86254 3.03752L2.86338 6.01787L1.02074 8.76236C0.956706 8.86599 1.02785 8.99821 1.1488 8.99821Z" fill="#49A4FD"/>
</svg>
