<svg width="110" height="18" viewBox="0 0 110 18" fill="none" xmlns="http://www.w3.org/2000/svg">
<g clip-path="url(#clip0)">
<path d="M9.85706 17.9392L9.89619 18H13.8127L13.8518 17.9392L15.851 14.9589L17.8501 11.9785L19.6928 9.23405C19.7604 9.13399 19.6892 9.00177 19.5683 9.00177H15.9292C15.8794 9.00177 15.8332 9.02678 15.8047 9.06967L13.8518 11.9821L11.8527 14.9625L9.85706 17.9392Z" fill="#49A4FD"/>
<path d="M1.86755 17.9392L1.90668 18H5.82319L5.86231 17.9392L7.86147 14.9589L9.86063 11.9786L13.8554 6.01787L15.8546 3.03752L17.7363 0.232281C17.7968 0.135795 17.7257 0 17.6047 0H13.891L13.8518 0.0607504L11.8527 3.03752L9.85352 6.01787L5.86231 11.9786L3.86316 14.9589L1.86755 17.9392Z" fill="#49A4FD"/>
<path d="M0.148796 8.99821H3.78428C3.83408 8.99821 3.88032 8.9732 3.90878 8.93032L5.8617 6.01787L7.86086 3.03752L9.86001 0.0571769L9.81733 0H5.90083L5.8617 0.0607505L3.86254 3.03752L1.86338 6.01787L0.0207362 8.76236C-0.0432938 8.86599 0.0278507 8.99821 0.148796 8.99821Z" fill="#49A4FD"/>
<path d="M40.7836 3.83441C40.8903 3.83441 40.9863 3.87015 41.0682 3.94162C41.1393 4.02381 41.1749 4.1203 41.1749 4.2275V15.7093C41.1749 15.8165 41.1393 15.9059 41.0682 15.9774C40.9863 16.0595 40.8903 16.1024 40.7836 16.1024H39.1295C39.0228 16.1024 38.9338 16.0595 38.8627 15.9774C38.7809 15.9059 38.7382 15.8165 38.7382 15.7093V8.07265L37.2797 10.399C37.2192 10.4955 37.1374 10.5777 37.0307 10.6492C36.9133 10.7099 36.7995 10.7385 36.6928 10.7385H35.9102C35.8035 10.7385 35.6896 10.7099 35.5722 10.6492C35.4655 10.5777 35.3837 10.4955 35.3232 10.399L33.847 8.05478V15.7093C33.847 15.8165 33.8114 15.9059 33.7403 15.9774C33.6585 16.0595 33.5624 16.1024 33.4557 16.1024H31.798C31.6913 16.1024 31.6024 16.0595 31.5312 15.9774C31.4494 15.9059 31.4067 15.8165 31.4067 15.7093V4.2275C31.4067 4.1203 31.4494 4.02381 31.5312 3.94162C31.6024 3.87015 31.6913 3.83441 31.798 3.83441H33.4557L33.5802 3.85228C33.6407 3.863 33.6976 3.89516 33.7581 3.94162C33.8755 4.00237 33.9644 4.07741 34.0249 4.1739L36.305 8.12625L38.5852 4.1739C38.6457 4.07741 38.7275 4.00237 38.8342 3.94162L38.9765 3.87015C39.0228 3.84513 39.0761 3.83441 39.1366 3.83441H40.7836Z" fill="#49A4FD"/>
<path d="M50.4343 3.84875C50.8719 3.84875 51.2809 3.93095 51.6616 4.0989C52.0422 4.26686 52.373 4.49199 52.6576 4.77788C52.9422 5.06376 53.1663 5.39968 53.3335 5.77848C53.5006 6.16085 53.5825 6.56466 53.5825 6.99348V12.9506C53.5825 13.3794 53.5006 13.7868 53.3335 14.1656C53.1663 14.548 52.9422 14.8803 52.6576 15.1662C52.373 15.4521 52.0386 15.6808 51.6616 15.8452C51.2809 16.0131 50.8719 16.0953 50.4343 16.0953H46.9625C46.5214 16.0953 46.1123 16.0131 45.7352 15.8452C45.3546 15.6772 45.0238 15.4521 44.7392 15.1662C44.4546 14.8803 44.227 14.548 44.0633 14.1656C43.8961 13.7832 43.8143 13.3794 43.8143 12.9506V6.99706C43.8143 6.56823 43.8961 6.16442 44.0633 5.78205C44.2305 5.39968 44.4546 5.06734 44.7392 4.78145C45.0238 4.49557 45.3546 4.27043 45.7352 4.10248C46.1159 3.93452 46.5249 3.85233 46.9625 3.85233H50.4343V3.84875ZM51.1458 6.99706C51.1458 6.79337 51.0782 6.62898 50.9394 6.49676C50.8043 6.36454 50.6335 6.30021 50.4308 6.30021H46.9589C46.7562 6.30021 46.589 6.36454 46.4502 6.49676C46.3151 6.62898 46.2439 6.79337 46.2439 6.99706V12.9542C46.2439 13.1579 46.3115 13.3223 46.4502 13.4545C46.5854 13.5867 46.7562 13.651 46.9589 13.651H50.4308C50.6335 13.651 50.8007 13.5867 50.9394 13.4545C51.0746 13.3223 51.1458 13.1579 51.1458 12.9542V6.99706Z" fill="#49A4FD"/>
<path d="M65.6059 3.83445C65.7126 3.83445 65.8086 3.87019 65.8904 3.94166C65.9616 4.02385 65.9972 4.12034 65.9972 4.22755V15.7094C65.9972 15.8166 65.9616 15.9059 65.8904 15.9774C65.8086 16.0596 65.7126 16.1025 65.6059 16.1025H63.9304C63.8237 16.1025 63.7348 16.0596 63.6636 15.9774C63.5818 15.9059 63.5391 15.8166 63.5391 15.7094V11.7034L58.9468 15.8345C58.8649 15.9059 58.7582 15.9667 58.6266 16.0131C58.495 16.0739 58.3776 16.1025 58.2709 16.1025H56.6132C56.5065 16.1025 56.4176 16.0596 56.3464 15.9774C56.2646 15.9059 56.2219 15.8166 56.2219 15.7094V4.22755C56.2219 4.12034 56.2646 4.02385 56.3464 3.94166C56.4176 3.87019 56.5065 3.83445 56.6132 3.83445H58.2709C58.3776 3.83445 58.4736 3.87019 58.5555 3.94166C58.6266 4.02385 58.6622 4.12034 58.6622 4.22755V12.8112L63.5391 8.41218V4.22755C63.5391 4.12034 63.5818 4.02385 63.6636 3.94166C63.7348 3.87019 63.8237 3.83445 63.9304 3.83445H65.6059ZM57.8405 0.414562C57.7586 0.343091 57.7266 0.282341 57.7515 0.235884C57.7764 0.175134 57.8405 0.146545 57.9472 0.146545H59.5159C59.6226 0.146545 59.74 0.175134 59.8716 0.235884C59.989 0.282341 60.0922 0.350238 60.174 0.43243L61.1167 1.36155L62.0415 0.43243C62.1234 0.350238 62.2301 0.282341 62.3617 0.235884C62.4791 0.175134 62.5929 0.146545 62.6996 0.146545H64.247C64.3537 0.146545 64.4178 0.175134 64.4427 0.235884C64.4676 0.282341 64.4355 0.343091 64.3537 0.414562L62.3759 2.32999C62.2941 2.41218 62.1874 2.48365 62.0558 2.5444C61.9384 2.59086 61.8245 2.61587 61.7178 2.61587H60.4906C60.3839 2.61587 60.2665 2.59086 60.1349 2.5444C60.0175 2.48365 59.9143 2.41933 59.8325 2.34786L57.8405 0.414562Z" fill="#49A4FD"/>
<path d="M85.0567 15.763C85.1172 15.8595 85.1243 15.9381 85.0852 16.006C85.0425 16.0703 84.9678 16.106 84.8611 16.106H82.8299C82.7232 16.106 82.6165 16.0739 82.5098 16.006C82.403 15.9417 82.3212 15.8595 82.2607 15.763L79.6818 11.2031H77.9565V15.7094C77.9565 15.8166 77.9174 15.9095 77.8391 15.9881C77.7609 16.0667 77.6684 16.106 77.5617 16.106H75.8862C75.7795 16.106 75.6906 16.0667 75.6194 15.9881C75.5483 15.9095 75.5127 15.8166 75.5127 15.7094V4.22754C75.5127 4.12033 75.5483 4.02742 75.6194 3.9488C75.6906 3.87018 75.7795 3.83087 75.8862 3.83087H77.5617C77.6684 3.83087 77.7609 3.87018 77.8391 3.9488C77.9174 4.02742 77.9565 4.12033 77.9565 4.22754V8.75166H79.6818L82.2643 4.17393C82.3248 4.07745 82.4066 3.99883 82.5133 3.93093C82.62 3.86661 82.7267 3.83087 82.8335 3.83087H84.8646C84.9714 3.83087 85.0461 3.86303 85.0887 3.93093C85.1314 3.99526 85.1208 4.07745 85.0603 4.17393L81.8019 9.97024L85.0567 15.763Z" fill="#49A4FD"/>
<path d="M94.4585 3.84875C94.896 3.84875 95.3051 3.93095 95.6857 4.0989C96.0664 4.26686 96.3972 4.49199 96.6818 4.77788C96.9663 5.06376 97.1904 5.39968 97.3576 5.77848C97.5248 6.16085 97.6066 6.56466 97.6066 6.99348V12.9506C97.6066 13.3794 97.5248 13.7868 97.3576 14.1656C97.1904 14.548 96.9663 14.8803 96.6818 15.1662C96.3972 15.4521 96.0628 15.6808 95.6857 15.8452C95.3051 16.0131 94.896 16.0953 94.4585 16.0953H90.9866C90.5455 16.0953 90.1365 16.0131 89.7594 15.8452C89.3788 15.6772 89.048 15.4521 88.7634 15.1662C88.4788 14.8803 88.2511 14.548 88.0875 14.1656C87.9203 13.7832 87.8385 13.3794 87.8385 12.9506V6.99706C87.8385 6.56823 87.9203 6.16442 88.0875 5.78205C88.2547 5.39968 88.4788 5.06734 88.7634 4.78145C89.048 4.49557 89.3788 4.27043 89.7594 4.10248C90.14 3.93452 90.5491 3.85233 90.9866 3.85233H94.4585V3.84875ZM95.1699 6.99706C95.1699 6.79337 95.1024 6.62898 94.9636 6.49676C94.8284 6.36454 94.6577 6.30021 94.4549 6.30021H90.9831C90.7803 6.30021 90.6131 6.36454 90.4744 6.49676C90.3392 6.62898 90.2681 6.79337 90.2681 6.99706V12.9542C90.2681 13.1579 90.3357 13.3223 90.4744 13.4545C90.6096 13.5867 90.7803 13.651 90.9831 13.651H94.4549C94.6577 13.651 94.8249 13.5867 94.9636 13.4545C95.0988 13.3223 95.1699 13.1579 95.1699 12.9542V6.99706Z" fill="#49A4FD"/>
<path d="M109.626 13.651C109.733 13.651 109.822 13.6867 109.893 13.7582C109.964 13.8404 110 13.9369 110 14.0441V17.4246C110 17.5319 109.964 17.6212 109.893 17.6927C109.811 17.7749 109.715 17.8177 109.609 17.8177H107.933C107.826 17.8177 107.738 17.7749 107.666 17.6927C107.595 17.6212 107.56 17.5319 107.56 17.4246V16.1024H102.683V17.4246C102.683 17.5319 102.647 17.6212 102.576 17.6927C102.494 17.7749 102.398 17.8177 102.291 17.8177H100.616C100.509 17.8177 100.42 17.7749 100.349 17.6927C100.278 17.6212 100.242 17.5319 100.242 17.4246V14.0441C100.242 13.9369 100.278 13.8404 100.349 13.7582C100.42 13.6867 100.509 13.651 100.616 13.651H101.114V6.99701C101.114 6.55746 101.196 6.14293 101.363 5.76413C101.53 5.38176 101.754 5.04942 102.039 4.76354C102.323 4.47765 102.661 4.25252 103.053 4.08456C103.433 3.9166 103.835 3.83441 104.262 3.83441H108.748C108.854 3.83441 108.943 3.87015 109.015 3.94162C109.086 4.02381 109.121 4.1203 109.121 4.2275V13.651H109.626ZM106.688 13.651V6.2823H104.266C104.063 6.2823 103.896 6.34662 103.768 6.47884C103.636 6.62179 103.572 6.79332 103.572 6.99701V13.651H106.688Z" fill="#49A4FD"/>
</g>
<defs>
<clipPath id="clip0">
<rect width="110" height="18" fill="white"/>
</clipPath>
</defs>
</svg>
